<?xml version="1.0" standalone="no"?>
<!DOCTYPE svg PUBLIC "-//W3C//DTD SVG 20010904//EN"
 "http://www.w3.org/TR/2001/REC-SVG-20010904/DTD/svg10.dtd">
<svg version="1.0" xmlns="http://www.w3.org/2000/svg"
 width="17896.000000pt" height="3738.000000pt" viewBox="0 0 17896.000000 3738.000000"
 preserveAspectRatio="xMidYMid meet">

<g transform="translate(0.000000,3738.000000) scale(0.100000,-0.100000)"
fill="#000000" stroke="none">
<path d="M145655 37370 c-614 -45 -1194 -224 -1750 -538 -133 -75 -443 -285
-566 -384 -563 -450 -1010 -1000 -1325 -1628 -229 -458 -365 -895 -431 -1380
-26 -192 -26 -688 0 -880 55 -407 165 -788 338 -1164 207 -451 479 -840 920
-1316 74 -79 1880 -1895 4013 -4035 2134 -2139 4425 -4437 5091 -5105 666
-668 1442 -1448 1723 -1734 l512 -518 6087 7 6088 7 614 621 c337 342 1233
1243 1990 2002 5833 5846 8688 8714 8815 8857 360 404 591 736 776 1113 212
435 338 861 392 1330 19 168 16 618 -6 790 -85 672 -321 1299 -713 1894 -696
1059 -1764 1794 -2913 2005 -244 45 -414 59 -695 59 -364 0 -632 -33 -970
-120 -678 -174 -1266 -506 -1936 -1092 -95 -83 -2221 -2200 -5554 -5532 -2970
-2968 -5512 -5505 -5650 -5637 l-250 -239 -240 231 c-132 126 -2677 2665
-5655 5641 -3514 3512 -5469 5459 -5570 5547 -177 154 -313 264 -450 365 -635
467 -1307 738 -2026 817 -176 20 -502 27 -659 16z"/>
<path d="M4010 31479 c-256 -3 -849 -7 -1319 -8 l-853 -1 -123 -25 c-309 -62
-618 -186 -844 -337 -456 -306 -717 -751 -818 -1398 -17 -110 -18 -552 -19
-9990 0 -7451 -4 -10151 -13 -11001 -14 -1230 -14 -1255 39 -1521 100 -499
360 -957 709 -1250 308 -258 654 -411 1071 -474 89 -14 171 -18 360 -17 135 1
1226 4 2425 6 2136 3 2354 6 2805 37 658 46 1137 114 1755 250 1597 352 3040
943 4325 1773 1899 1225 3457 3012 4574 5247 89 179 201 413 248 520 511 1160
845 2406 992 3695 61 535 80 892 80 1490 0 727 -33 1214 -130 1895 -341 2396
-1354 4655 -2898 6465 -432 507 -1032 1102 -1586 1575 -1026 876 -2126 1566
-3291 2066 -1116 478 -2294 776 -3574 903 -992 99 -2071 127 -3915 100z m2750
-4129 c736 -30 1316 -103 1857 -236 1853 -452 3574 -1604 4840 -3239 853
-1103 1445 -2394 1678 -3658 139 -757 179 -1663 109 -2477 -134 -1575 -646
-3035 -1512 -4310 -656 -967 -1545 -1826 -2552 -2466 -1098 -698 -2318 -1156
-3460 -1299 -318 -40 -444 -45 -1245 -55 -440 -5 -1086 -14 -1435 -20 -575
-10 -641 -10 -695 5 -67 18 -129 51 -162 87 -31 34 -69 115 -82 176 -14 69
-16 16947 -1 17152 12 175 27 226 84 278 42 39 50 42 171 66 45 9 2178 5 2405
-4z"/>
<path d="M103810 31470 c-256 -31 -549 -117 -785 -230 -394 -189 -666 -457
-850 -835 -122 -250 -194 -526 -225 -859 -14 -160 -14 -21864 0 -22089 13
-193 25 -284 56 -425 184 -831 841 -1438 1671 -1547 131 -17 390 -20 513 -5
953 115 1683 843 1800 1795 6 49 15 184 20 300 14 319 13 14815 -1 14967 -18
194 15 333 101 431 l32 37 197 -262 c108 -145 325 -441 481 -658 156 -217 538
-746 849 -1175 1921 -2652 2495 -3460 3299 -4640 128 -187 262 -379 299 -425
95 -122 361 -383 478 -471 315 -236 638 -380 1010 -450 157 -30 457 -37 622
-15 676 89 1244 484 1673 1161 191 301 369 553 866 1222 169 228 3609 4992
3968 5495 157 220 133 203 243 172 l53 -15 3 -7792 c2 -6114 5 -7809 15 -7872
70 -451 217 -793 474 -1100 378 -453 944 -716 1532 -715 532 2 1085 237 1471
626 378 380 569 838 615 1479 8 107 10 3246 8 10995 l-3 10845 -22 145 c-69
473 -202 799 -453 1115 -270 339 -691 606 -1129 715 -199 50 -324 64 -546 64
-685 -3 -1163 -254 -1638 -862 -46 -59 -848 -1167 -1782 -2462 -4707 -6525
-5617 -7783 -5625 -7773 -4 4 -229 312 -500 683 -521 713 -921 1266 -2780
3845 -2408 3340 -4059 5624 -4168 5765 -85 109 -275 304 -377 387 -271 219
-572 359 -895 418 -111 20 -452 29 -570 15z"/>
<path d="M135351 31454 c-207 -28 -455 -106 -666 -209 -222 -108 -387 -227
-550 -397 -279 -291 -445 -649 -528 -1138 l-21 -125 -5 -11010 c-4 -6055 -3
-11066 2 -11134 4 -68 16 -178 27 -243 145 -846 636 -1405 1450 -1651 205 -62
284 -72 565 -72 232 1 259 3 375 28 426 90 808 305 1109 623 366 386 532 822
571 1494 17 282 8 21761 -8 21890 -59 462 -150 744 -330 1020 -287 442 -755
767 -1282 890 -213 49 -496 63 -709 34z"/>
<path d="M86360 31425 c-566 -69 -1011 -307 -1343 -720 -177 -220 -299 -444
-451 -828 -106 -268 -4822 -12827 -6654 -17722 -484 -1292 -933 -2483 -997
-2645 -349 -880 -461 -1214 -551 -1645 -31 -150 -42 -400 -25 -555 52 -459
266 -908 587 -1236 268 -273 552 -431 958 -534 428 -108 827 -102 1195 20 420
138 763 419 1001 819 138 233 161 287 640 1541 602 1575 841 2216 1090 2925
56 160 122 331 147 382 108 219 264 340 484 376 71 12 731 14 4339 11 2340 -2
4270 -7 4288 -10 48 -8 113 -77 155 -165 19 -41 218 -562 442 -1159 886 -2359
1349 -3551 1483 -3815 253 -499 620 -814 1094 -940 275 -73 640 -74 983 -3
853 176 1490 756 1645 1500 71 343 38 808 -90 1227 -56 184 76 -169 -2698
7226 -5337 14227 -5499 14657 -5594 14856 -307 644 -815 1013 -1506 1094 -153
18 -474 18 -622 0z m1799 -11779 c809 -2150 1471 -3915 1471 -3923 0 -11 -492
-13 -2942 -11 l-2943 3 3 35 c50 520 1852 5461 2647 7260 167 378 272 583 285
559 5 -8 670 -1773 1479 -3923z"/>
<path d="M27027 31219 c-455 -44 -944 -296 -1307 -675 -270 -282 -441 -599
-510 -950 -28 -138 -38 -401 -21 -541 38 -306 147 -615 321 -903 80 -133 96
-157 560 -800 213 -294 836 -1158 1385 -1920 2495 -3460 3754 -5200 4929
-6810 214 -294 419 -582 455 -640 125 -203 223 -443 270 -660 51 -239 49 16
46 -4900 -2 -2516 0 -4692 5 -4835 10 -286 26 -431 64 -585 141 -554 543
-1049 1074 -1318 206 -105 393 -164 622 -198 175 -25 490 -15 660 21 491 103
923 382 1227 790 235 315 347 651 384 1155 7 100 10 1609 8 4870 -2 4426 -2
4731 15 4825 53 313 163 598 333 867 37 59 273 386 523 725 1097 1490 2445
3333 4231 5783 548 751 1294 1775 1659 2275 819 1123 829 1136 903 1254 224
356 339 752 339 1171 0 191 -14 312 -57 482 -81 319 -267 641 -526 913 -514
537 -1159 717 -1909 531 -373 -93 -669 -271 -975 -587 -154 -158 -200 -218
-736 -954 -1432 -1968 -5805 -7938 -5818 -7943 -4 -1 -281 372 -616 830 -335
458 -985 1346 -1444 1973 -459 627 -1242 1700 -1741 2385 -1724 2368 -2565
3499 -2781 3739 -412 458 -983 687 -1572 630z"/>
<path d="M50995 31194 c-435 -66 -907 -291 -1194 -568 -282 -274 -433 -595
-508 -1086 -17 -109 -18 -660 -21 -10965 -2 -7752 0 -10907 8 -11050 23 -425
75 -662 204 -930 429 -894 1436 -1333 2361 -1030 455 149 856 463 1107 868
213 342 308 708 338 1297 6 124 10 2828 10 7460 -1 6433 1 7275 14 7350 16 86
51 224 64 246 4 7 90 -96 223 -269 119 -155 1826 -2514 3794 -5242 1968 -2728
3992 -5534 4498 -6235 507 -701 1422 -1970 2035 -2820 1163 -1612 1244 -1722
1401 -1909 402 -483 794 -741 1251 -823 150 -27 418 -29 565 -4 229 38 431
104 660 216 619 301 979 800 1092 1511 17 109 18 567 18 11079 0 10518 -1
10970 -18 11084 -54 354 -184 664 -396 941 -68 90 -246 269 -336 340 -388 303
-827 448 -1315 432 -184 -6 -289 -21 -455 -64 -621 -162 -1128 -627 -1355
-1243 -40 -107 -84 -292 -107 -440 -16 -109 -18 -540 -20 -7726 l-3 -7611 -72
-21 c-40 -12 -75 -18 -78 -13 -3 4 -111 149 -241 322 -130 173 -1228 1687
-2439 3364 -2683 3714 -3598 4981 -6810 9425 -948 1312 -1834 2538 -1968 2725
-466 646 -564 764 -792 954 -217 181 -542 343 -816 407 -192 44 -510 57 -699
28z"/>
</g>
</svg>
